<svg id="_x31_" enable-background="new 0 0 24 24" height="512" viewBox="0 0 24 24" width="512" xmlns="http://www.w3.org/2000/svg"><g><g><path d="m8.569 24.021c-.276 0-.5-.224-.5-.5v-.869c0-.309-.094-.606-.271-.861l-1.984-2.833c-.814-1.163-1.032-2.66-.583-4.005l.996-2.988c.288-.864 1.094-1.444 2.004-1.444h4.76c.561 0 1.042.322 1.257.84.215.519.102 1.087-.295 1.483-.926.925-2.112 1.495-3.394 1.64 1.372 1.15 2.415 2.674 2.983 4.379.087.262-.054.545-.316.633-.264.088-.545-.056-.632-.316-.61-1.83-1.83-3.427-3.435-4.496l-.369-.246c-.183-.122-.265-.351-.201-.562.064-.21.258-.354.479-.354h.835c1.263 0 2.449-.491 3.342-1.384.154-.154.106-.326.078-.394s-.116-.223-.333-.223h-4.76c-.479 0-.904.306-1.056.761l-.995 2.988c-.348 1.045-.179 2.209.454 3.113l1.984 2.834c.296.424.452.92.452 1.435v.869c0 .276-.224.5-.5.5z"/></g></g><g><g><path d="m17.21 13.93c-.058 0-.116-.01-.173-.031-.259-.096-.392-.383-.295-.643l3.32-8.979c.041-.108.059-.208.059-.316 0-.401-.268-.771-.666-.922-.515-.184-1.084.057-1.266.539l-3.099 8.396c-.096.26-.384.393-.643.296-.259-.096-.391-.383-.296-.642l3.1-8.399c.376-.994 1.521-1.496 2.548-1.128.793.298 1.321 1.045 1.321 1.86 0 .229-.04.446-.122.666l-3.319 8.978c-.075.2-.266.325-.469.325z"/></g></g><g><g><path d="m17.154 18.521c-.347 0-.688-.091-.997-.27v.001c-.955-.552-1.284-1.777-.732-2.732l1.412-2.444c.267-.463.699-.794 1.215-.933.517-.139 1.055-.067 1.518.201.955.551 1.283 1.776.732 2.731l-1.412 2.444c-.267.463-.698.794-1.214.932-.174.047-.348.07-.522.07zm1.415-5.446c-.086 0-.173.012-.259.034-.258.069-.474.235-.607.467l-1.412 2.444c-.275.478-.111 1.09.366 1.366.231.134.502.169.759.1.258-.069.474-.234.607-.466l1.412-2.444c.275-.478.111-1.09-.366-1.366-.155-.089-.326-.135-.5-.135z"/></g></g><g><g><path d="m11.718 11.521c-.244 0-.457-.178-.494-.426l-1.31-8.735c-.073-.487-.483-.839-.975-.839-.287 0-.558.124-.746.342-.186.216-.27.503-.228.787l1.227 8.276c.041.273-.148.527-.421.567-.271.044-.527-.147-.568-.421l-1.227-8.275c-.084-.572.084-1.151.461-1.588s.925-.688 1.502-.688c.99 0 1.816.711 1.963 1.69l1.31 8.735c.041.273-.147.527-.42.568-.025.005-.05.007-.074.007z"/></g></g><g><g><path d="m14.615 12.303c-.021 0-.041-.001-.062-.004-.274-.033-.469-.283-.435-.558l1.19-9.639c.032-.29-.068-.584-.275-.798-.207-.215-.491-.323-.793-.302-.48.037-.866.41-.917.889l-1.107 9.188c-.033.274-.29.479-.556.437-.274-.032-.47-.282-.437-.556l1.106-9.183c.103-.951.875-1.699 1.834-1.772.6-.041 1.174.175 1.589.604s.616 1.016.55 1.609l-1.191 9.646c-.032.253-.247.439-.496.439z"/></g></g><g><g><path d="m17.32 24.02c-.276 0-.5-.224-.5-.5v-.78c0-.586.205-1.154.576-1.6l.333-.394c.993-1.186 1.438-2.752 1.216-4.297l-.09-.651c-.038-.273.153-.525.427-.563.272-.037.525.154.563.427l.09.649c.261 1.823-.265 3.676-1.442 5.08l-.332.392c-.219.264-.341.604-.341.957v.779c0 .277-.224.501-.5.501z"/></g></g></svg>