<svg width="155.123" height="155.123" xmlns="http://www.w3.org/2000/svg">

 <g>
  <title>background</title>
  <rect fill="none" id="canvas_background" height="602" width="802" y="-1" x="-1"/>
 </g>
 <g>
  <title>Layer 1</title>
  <g transform="rotate(-91 77.56127929687499,77.56200408935545) " id="svg_1">
   <g id="svg_20">
    <path id="svg_19" fill="#010002" d="m150.669,84.068c7.858,-7.823 5.43,-23.647 -8.181,-23.647l-35.813,0.024c1.36,-7.584 3.33,-20.156 3.252,-21.343c-0.752,-11.242 -7.918,-24.924 -8.228,-25.484c-1.307,-2.434 -7.906,-5.734 -14.547,-4.32c-8.586,1.838 -9.463,7.315 -9.428,8.825c0,0 0.37,14.983 0.406,18.981c-4.105,9.016 -18.259,32.71 -22.549,34.536c-1.026,-0.621 -2.19,-0.955 -3.401,-0.955l-45.246,0c-3.843,0 -6.934,3.108 -6.934,6.933l0.006,62.533c0.269,3.371 3.133,6.015 6.516,6.015l40.64,0c3.604,0 6.534,-2.93 6.534,-6.534l0,-2.076c0,0 1.51,-0.113 2.196,0.328c2.613,1.659 5.842,3.747 10.054,3.747l60.647,0c22.674,0 20.24,-20.126 18.169,-22.871c3.831,-4.171 6.2,-11.528 2.966,-17.34c2.482,-2.631 6.85,-9.863 2.941,-17.352zm-104.903,55.552l-39.256,0l0,-62.408l39.256,0l0,62.408zm94.324,-56.089l-0.37,1.545c10.448,2.971 4.887,15.013 -2.608,15.794l-0.37,1.545c10.018,2.548 5.239,14.947 -2.608,15.794l-0.37,1.539c8.181,1.343 6.2,15.305 -6.194,15.305l-61.686,0.024c-4.356,0 -8.324,-4.964 -11.528,-4.964l-2.796,0l0,-48.038c3.485,-2.16 7.769,-4.964 10.15,-6.987c4.499,-3.837 22.913,-33.593 22.913,-37.317s-0.406,-19.834 -0.406,-19.834s3.61,-4.654 11.671,-1.259c0,0 6.784,12.721 7.476,22.859c0,0 -3.055,20.884 -4.696,27.436l42.765,0c10.507,0.012 8.502,15.013 -1.343,16.558z"/>
   </g>
  </g>
  <g id="svg_4"/>
  <g id="svg_5"/>
  <g id="svg_6"/>
  <g id="svg_7"/>
  <g id="svg_8"/>
  <g id="svg_9"/>
  <g id="svg_10"/>
  <g id="svg_11"/>
  <g id="svg_12"/>
  <g id="svg_13"/>
  <g id="svg_14"/>
  <g id="svg_15"/>
  <g id="svg_16"/>
  <g id="svg_17"/>
  <g transform="rotate(-90 0,0) " id="svg_18"/>
 </g>
</svg>